%TF.GenerationSoftware,KiCad,Pcbnew,8.0.6*%
%TF.CreationDate,2025-03-26T20:42:54-04:00*%
%TF.ProjectId,buzzCatcher,62757a7a-4361-4746-9368-65722e6b6963,rev?*%
%TF.SameCoordinates,Original*%
%TF.FileFunction,Soldermask,Bot*%
%TF.FilePolarity,Negative*%
%FSLAX46Y46*%
G04 Gerber Fmt 4.6, Leading zero omitted, Abs format (unit mm)*
G04 Created by KiCad (PCBNEW 8.0.6) date 2025-03-26 20:42:54*
%MOMM*%
%LPD*%
G01*
G04 APERTURE LIST*
%ADD10C,3.250000*%
%ADD11C,1.400000*%
%ADD12C,1.500000*%
%ADD13R,1.725000X1.725000*%
%ADD14C,1.725000*%
%ADD15R,1.600000X1.600000*%
%ADD16O,1.600000X1.600000*%
%ADD17R,1.088000X1.088000*%
%ADD18C,1.088000*%
%ADD19R,1.300000X1.300000*%
%ADD20C,1.300000*%
%ADD21C,2.250000*%
%ADD22R,2.500000X2.500000*%
%ADD23C,2.500000*%
%ADD24R,1.416000X1.416000*%
%ADD25C,1.416000*%
%ADD26R,1.500000X1.500000*%
G04 APERTURE END LIST*
D10*
%TO.C,J1*%
X61999999Y-77500000D03*
X61999999Y-87660000D03*
D11*
X70889999Y-79405000D03*
X68349999Y-80675000D03*
X70889999Y-81945000D03*
X68349999Y-83215000D03*
X70889999Y-84485000D03*
X68349999Y-85755000D03*
%TD*%
D12*
%TO.C,Q1*%
X77270000Y-75615999D03*
X76000000Y-76915999D03*
X74730000Y-75615999D03*
%TD*%
%TO.C,Q2*%
X85357667Y-75615999D03*
X84087667Y-76915999D03*
X82817667Y-75615999D03*
%TD*%
D13*
%TO.C,J19*%
X91999998Y-146290004D03*
D14*
X92000000Y-143750000D03*
%TD*%
D15*
%TO.C,A1*%
X75000000Y-99920000D03*
D16*
X75000000Y-102460000D03*
X75000000Y-105000000D03*
X75000000Y-107540000D03*
X75000000Y-110080000D03*
X75000000Y-112620000D03*
X75000000Y-115160000D03*
X75000000Y-117700000D03*
X75000000Y-120240000D03*
X75000000Y-122780000D03*
X75000000Y-125320000D03*
X75000000Y-127860000D03*
X75000000Y-130400000D03*
X75000000Y-132940000D03*
X75000000Y-135480000D03*
X90240000Y-135480000D03*
X90240000Y-132940000D03*
X90240000Y-130400000D03*
X90240000Y-127860000D03*
X90240000Y-125320000D03*
X90240000Y-122780000D03*
X90240000Y-120240000D03*
X90240000Y-117700000D03*
X90240000Y-115160000D03*
X90240000Y-112620000D03*
X90240000Y-110080000D03*
X90240000Y-107540000D03*
X90240000Y-105000000D03*
X90240000Y-102460000D03*
X90240000Y-99920000D03*
%TD*%
D17*
%TO.C,R1*%
X91065002Y-51109999D03*
D18*
X91065000Y-53650000D03*
X91064998Y-56190002D03*
X91065001Y-58730000D03*
X91065000Y-61270001D03*
X91065005Y-63810003D03*
X91065000Y-66350000D03*
X91065000Y-68890000D03*
X98934998Y-68890001D03*
X98935000Y-66350000D03*
X98935002Y-63809998D03*
X98934999Y-61270000D03*
X98935000Y-58729999D03*
X98934995Y-56189997D03*
X98935000Y-53650000D03*
X98935000Y-51110000D03*
%TD*%
D17*
%TO.C,RN2*%
X56610001Y-65934997D03*
D18*
X59150000Y-65935000D03*
X61690002Y-65935002D03*
X64229999Y-65935000D03*
X66770001Y-65935000D03*
X69310002Y-65935001D03*
X71850000Y-65935000D03*
X74390000Y-65935000D03*
X74389999Y-58065003D03*
X71850000Y-58065000D03*
X69309998Y-58064998D03*
X66770001Y-58065000D03*
X64229999Y-58065000D03*
X61689998Y-58064999D03*
X59150000Y-58065000D03*
X56610000Y-58065000D03*
%TD*%
D10*
%TO.C,J2*%
X61999999Y-93500000D03*
X61999999Y-103660000D03*
D11*
X70889999Y-95405000D03*
X68349999Y-96675000D03*
X70889999Y-97945000D03*
X68349999Y-99215000D03*
X70889999Y-100485000D03*
X68349999Y-101755000D03*
%TD*%
D13*
%TO.C,J18*%
X68540001Y-146000001D03*
D14*
X66000000Y-146000000D03*
%TD*%
D10*
%TO.C,J3*%
X61999999Y-109500000D03*
X61999999Y-119660000D03*
D11*
X70889999Y-111405000D03*
X68349999Y-112675000D03*
X70889999Y-113945000D03*
X68349999Y-115215000D03*
X70889999Y-116485000D03*
X68349999Y-117755000D03*
%TD*%
D19*
%TO.C,S1*%
X91000000Y-87000000D03*
D20*
X91000000Y-85000000D03*
X91000000Y-83000000D03*
D21*
X91000000Y-89100000D03*
X91000000Y-80900000D03*
%TD*%
D13*
%TO.C,J20*%
X72000000Y-54000000D03*
D14*
X72000002Y-51459996D03*
%TD*%
D22*
%TO.C,LS1*%
X80000000Y-90000000D03*
D23*
X80000000Y-85000000D03*
%TD*%
D24*
%TO.C,LED9*%
X98000000Y-134540000D03*
D25*
X98000000Y-132000000D03*
X98000000Y-128540000D03*
X98000000Y-126000000D03*
X98000000Y-122540000D03*
X98000000Y-120000000D03*
X98000000Y-116540000D03*
X98000000Y-114000000D03*
X98000000Y-110540000D03*
X98000000Y-108000000D03*
X98000000Y-104540000D03*
X98000000Y-102000000D03*
X98000000Y-98540000D03*
X98000000Y-96000000D03*
X98000000Y-92540000D03*
X98000000Y-90000000D03*
X98000000Y-86540000D03*
X98000000Y-84000000D03*
X98000000Y-80540000D03*
X98000000Y-78000000D03*
%TD*%
D17*
%TO.C,R2*%
X87000000Y-68890000D03*
D18*
X87000000Y-66350000D03*
X87000001Y-63809998D03*
X87000000Y-61269999D03*
X87000000Y-58729999D03*
X86999999Y-56189999D03*
X87000000Y-53650000D03*
X87000000Y-51110000D03*
X79130000Y-51110000D03*
X79130000Y-53650000D03*
X79129999Y-56190002D03*
X79130000Y-58730001D03*
X79130000Y-61270001D03*
X79130001Y-63810001D03*
X79130000Y-66350000D03*
X79130000Y-68890000D03*
%TD*%
D10*
%TO.C,J4*%
X62000000Y-125500000D03*
X62000000Y-135660000D03*
D11*
X70890000Y-127405000D03*
X68350000Y-128675000D03*
X70890000Y-129945000D03*
X68350000Y-131215000D03*
X70890000Y-132485000D03*
X68350000Y-133755000D03*
%TD*%
D26*
%TO.C,IC1*%
X60000000Y-69000000D03*
D12*
X66500000Y-69000000D03*
X60000000Y-73500000D03*
X66500000Y-73500000D03*
%TD*%
D13*
%TO.C,J17*%
X68540001Y-140000001D03*
D14*
X66000000Y-140000000D03*
%TD*%
M02*
