M48
; DRILL file {KiCad 8.0.6} date 2025-03-26T20:42:51-0400
; FORMAT={-:-/ absolute / inch / decimal}
; #@! TF.CreationDate,2025-03-26T20:42:51-04:00
; #@! TF.GenerationSoftware,Kicad,Pcbnew,8.0.6
; #@! TF.FileFunction,Plated,1,2,PTH
FMAT,2
INCH
; #@! TA.AperFunction,Plated,PTH,ViaDrill
T1C0.0197
; #@! TA.AperFunction,Plated,PTH,ComponentDrill
T2C0.0271
; #@! TA.AperFunction,Plated,PTH,ComponentDrill
T3C0.0315
; #@! TA.AperFunction,Plated,PTH,ComponentDrill
T4C0.0354
; #@! TA.AperFunction,Plated,PTH,ComponentDrill
T5C0.0358
; #@! TA.AperFunction,Plated,PTH,ComponentDrill
T6C0.0394
; #@! TA.AperFunction,Plated,PTH,ComponentDrill
T7C0.0453
; #@! TA.AperFunction,Plated,PTH,ComponentDrill
T8C0.0591
; #@! TA.AperFunction,Plated,PTH,ViaDrill
T9C0.1969
%
G90
G05
T1
X2.185Y-2.0669
X2.185Y-5.6299
X2.3228Y-1.9291
X2.3228Y-2.2047
X2.3228Y-5.4921
X2.3228Y-5.7677
X2.4606Y-2.0669
X2.4606Y-5.6299
X3.7205Y-5.6201
X3.8583Y-5.4921
X3.8583Y-5.7677
X3.9961Y-5.6299
T2
X2.2287Y-2.286
X2.2287Y-2.5959
X2.3287Y-2.286
X2.3287Y-2.5959
X2.4287Y-2.286
X2.4287Y-2.5959
X2.5287Y-2.286
X2.5287Y-2.5959
X2.6287Y-2.286
X2.6287Y-2.5959
X2.7287Y-2.286
X2.7287Y-2.5959
X2.8287Y-2.286
X2.8287Y-2.5959
X2.9287Y-2.286
X2.9287Y-2.5959
X3.1154Y-2.2122
X3.1154Y-2.0122
X3.1154Y-2.1122
X3.1154Y-2.3122
X3.1154Y-2.4122
X3.1154Y-2.6122
X3.1154Y-2.7122
X3.1154Y-2.5122
X3.4252Y-2.2122
X3.4252Y-2.0122
X3.4252Y-2.1122
X3.4252Y-2.3122
X3.4252Y-2.4122
X3.4252Y-2.6122
X3.4252Y-2.7122
X3.4252Y-2.5122
X3.5852Y-2.2122
X3.5852Y-2.1122
X3.5852Y-2.4122
X3.5852Y-2.6122
X3.5852Y-2.7122
X3.5852Y-2.3122
X3.5852Y-2.0122
X3.5852Y-2.5122
X3.8951Y-2.2122
X3.8951Y-2.7122
X3.8951Y-2.4122
X3.8951Y-2.0122
X3.8951Y-2.1122
X3.8951Y-2.3122
X3.8951Y-2.6122
X3.8951Y-2.5122
T3
X3.1496Y-3.3465
X3.1496Y-3.5433
X3.5827Y-3.2677
X3.5827Y-3.3465
X3.5827Y-3.4252
T4
X2.6909Y-3.1762
X2.6909Y-3.2762
X2.6909Y-3.3762
X2.6909Y-3.8061
X2.6909Y-3.9061
X2.6909Y-4.0061
X2.6909Y-4.436
X2.6909Y-4.536
X2.6909Y-4.636
X2.6909Y-5.0659
X2.6909Y-5.1659
X2.6909Y-5.2659
X2.7909Y-3.1262
X2.7909Y-3.2262
X2.7909Y-3.3262
X2.7909Y-3.7561
X2.7909Y-3.8561
X2.7909Y-3.9561
X2.7909Y-4.386
X2.7909Y-4.486
X2.7909Y-4.586
X2.7909Y-5.0159
X2.7909Y-5.1159
X2.7909Y-5.2159
T5
X3.8583Y-3.0709
X3.8583Y-3.1709
X3.8583Y-3.3071
X3.8583Y-3.4071
X3.8583Y-3.5433
X3.8583Y-3.6433
X3.8583Y-3.7795
X3.8583Y-3.8795
X3.8583Y-4.0157
X3.8583Y-4.1157
X3.8583Y-4.252
X3.8583Y-4.352
X3.8583Y-4.4882
X3.8583Y-4.5882
X3.8583Y-4.7244
X3.8583Y-4.8244
X3.8583Y-4.9606
X3.8583Y-5.0606
X3.8583Y-5.1969
X3.8583Y-5.2969
T6
X2.3622Y-2.7165
X2.3622Y-2.8937
X2.6181Y-2.7165
X2.6181Y-2.8937
X2.9421Y-2.977
X2.9528Y-3.9339
X2.9528Y-4.0339
X2.9528Y-4.1339
X2.9528Y-4.2339
X2.9528Y-4.3339
X2.9528Y-4.4339
X2.9528Y-4.5339
X2.9528Y-4.6339
X2.9528Y-4.7339
X2.9528Y-4.8339
X2.9528Y-4.9339
X2.9528Y-5.0339
X2.9528Y-5.1339
X2.9528Y-5.2339
X2.9528Y-5.3339
X2.9921Y-3.0282
X3.0421Y-2.977
X3.2605Y-2.977
X3.3105Y-3.0282
X3.3605Y-2.977
X3.5528Y-3.9339
X3.5528Y-4.0339
X3.5528Y-4.1339
X3.5528Y-4.2339
X3.5528Y-4.3339
X3.5528Y-4.4339
X3.5528Y-4.5339
X3.5528Y-4.6339
X3.5528Y-4.7339
X3.5528Y-4.8339
X3.5528Y-4.9339
X3.5528Y-5.0339
X3.5528Y-5.1339
X3.5528Y-5.2339
X3.5528Y-5.3339
T7
X2.5984Y-5.5118
X2.5984Y-5.748
X2.6984Y-5.5118
X2.6984Y-5.748
X2.8346Y-2.126
X2.8346Y-2.026
X3.622Y-5.7594
X3.622Y-5.6594
T8
X3.5827Y-3.185
X3.5827Y-3.5079
T9
X2.3228Y-2.0669
X2.3228Y-5.6299
X3.8583Y-5.6299
M30
